<svg xmlns="http://www.w3.org/2000/svg" fill="none" viewBox="0 0 128 128"><g id="mostly-clear-night__mostly-clear-night" clip-path="url(#mostly-clear-night__clip0_1858_8342)"><g id="mostly-clear-night__Sky"><g id="mostly-clear-night__Moon"><path id="mostly-clear-night__Moon_2" fill="url(#mostly-clear-night__paint0_linear_1858_8342)" stroke="#72b9d5" stroke-linecap="round" stroke-linejoin="round" d="M52.253 42.587c-3.315 14.614 9.42 28.515 24.068 27.44C73.652 78.963 65.298 85.5 55.368 85.5 43.285 85.5 33.5 75.835 33.5 63.93c0-10.863 8.147-19.85 18.753-21.343"/><animateTransform attributeName="transform" begin="0s" calcMode="spline" dur="3s" keySplines=".42 0 .58 1; .42 0 .58 1" repeatCount="indefinite" type="rotate" values="-6 54.9 64.0;6 54.9 64.0;-6 54.9 64.0"/></g><g id="mostly-clear-night__Clouds"><g id="mostly-clear-night__Cloud"><path id="mostly-clear-night__Cloud_2" fill="url(#mostly-clear-night__paint1_linear_1858_8342)" stroke="#e6effc" stroke-miterlimit="10" d="M58.014 59.889c3.322-5.529 10.351-7.921 16.294-5.364 5.984 2.575 9.206 9.392 7.678 15.698l-.156.647.665-.03c4.915-.22 9.005 3.93 9.005 8.82 0 4.737-3.855 8.839-8.617 8.839-12.371-.011-24.747.001-37.116.001-4.784.001-8.79-3.869-9.226-8.612-.437-4.752 2.796-9.317 7.5-10.23l.477-.094-.08-.48c-.558-3.337.853-6.826 3.625-8.764 2.735-1.911 6.422-2.019 9.26-.263l.43.265z"/></g><animateTransform attributeName="transform" begin="0s" calcMode="spline" dur="3s" keySplines=".42 0 .58 1; .42 0 .58 1" repeatCount="indefinite" type="translate" values="0 0;0 -3;0 0"/></g></g></g><defs><linearGradient id="mostly-clear-night__paint0_linear_1858_8342" x1="55" x2="55" y1="42" y2="86" gradientUnits="userSpaceOnUse"><stop stop-color="#86c3db"/><stop offset="1" stop-color="#72b9d5"/></linearGradient><linearGradient id="mostly-clear-night__paint1_linear_1858_8342" x1="64.001" x2="64.001" y1="53" y2="89" gradientUnits="userSpaceOnUse"><stop stop-color="#f3f7fe"/><stop offset="1" stop-color="#e6effc"/></linearGradient><clipPath id="mostly-clear-night__clip0_1858_8342"><rect width="128" height="128" fill="#fff"/></clipPath></defs></svg>