<svg xmlns="http://www.w3.org/2000/svg" fill="none" viewBox="0 0 128 128"><g id="thunderstorms__thunderstorms" clip-path="url(#thunderstorms__clip0_2045_39851)"><g id="thunderstorms__Sky"><g id="thunderstorms__Clouds"><g id="thunderstorms__Cloud"><path id="thunderstorms__Cloud_2" fill="#e6effc" d="M90.389 63.086c2.295-9.204-2.648-18.95-11.38-22.604-8.744-3.658-19.181-.344-24.172 7.73-4.3-2.587-9.862-2.434-14.013.387-4.14 2.814-6.324 7.915-5.474 12.855-6.957 1.315-11.957 7.885-11.288 14.954.668 7.07 6.81 12.594 13.891 12.592h53.024C98.045 89 104 83.119 104 76.028c0-7.327-6.322-13.26-13.611-12.942"/></g><animateTransform attributeName="transform" begin="0s" calcMode="spline" dur="3s" keySplines=".42 0 .58 1; .42 0 .58 1" repeatCount="indefinite" type="translate" values="0 0;0 -3;0 0"/></g></g><g id="thunderstorms__Lightning"><path id="thunderstorms__Lightning Bolt" fill="#f6a823" d="m60 68-8 22.91h8L56 110l20-26.727H64L72 68z"><animate attributeName="opacity" begin="0s" dur="2s" keyTimes="0;0.25;0.33;0.42;0.5;0.57;0.63;0.67;1" repeatCount="indefinite" values="1;1;0;1;0;1;0;1;1"/></path></g></g><defs><clipPath id="thunderstorms__clip0_2045_39851"><rect width="128" height="128" fill="#fff"/></clipPath></defs></svg>